<?xml version="1.0" encoding="utf-8"?>
<!-- Generator: Adobe Illustrator 24.0.3, SVG Export Plug-In . SVG Version: 6.00 Build 0)  -->
<svg version="1.1" id="Layer_1" xmlns="http://www.w3.org/2000/svg" xmlns:xlink="http://www.w3.org/1999/xlink" x="0px" y="0px"
	 viewBox="0 0 731.9 201.3" enable-background="new 0 0 731.9 201.3" xml:space="preserve">
<g>
	<path fill="#002855" d="M296.5,141.8c-4.1,0-7.6,1.4-10.4,4.2c-2.8,2.8-4.3,6.2-4.3,10.3c0,4.1,1.4,7.5,4.3,10.3
		c2.8,2.8,6.3,4.2,10.4,4.2c4.1,0,7.5-1.4,10.4-4.2c2.9-2.8,4.3-6.2,4.3-10.3c0-4.1-1.4-7.5-4.3-10.3
		C304.1,143.2,300.6,141.8,296.5,141.8z M302.7,162.7c-1.7,1.7-3.7,2.6-6.2,2.6c-2.5,0-4.6-0.9-6.2-2.6c-1.6-1.7-2.4-3.9-2.4-6.4
		c0-2.6,0.8-4.8,2.5-6.5c1.6-1.7,3.7-2.6,6.2-2.6c2.4,0,4.5,0.9,6.1,2.6c1.6,1.7,2.5,3.9,2.5,6.5C305.2,158.9,304.4,161,302.7,162.7
		z M347.5,170.2h5.9v-27.7h-5.9V170.2z M350.5,128.1c-1.1,0-2.1,0.4-2.9,1.2c-0.8,0.8-1.2,1.7-1.2,2.8c0,1.1,0.4,2,1.2,2.8
		c0.8,0.7,1.7,1.1,2.9,1.1c1.1,0,2-0.4,2.8-1.1c0.8-0.8,1.2-1.7,1.2-2.8c0-1.1-0.4-2-1.2-2.8C352.6,128.5,351.6,128.1,350.5,128.1z
		 M330.2,147.3c3,0,5.5,1.4,7.5,4.2l4.2-3.3c-1.2-2-2.8-3.6-4.8-4.7c-2-1.1-4.3-1.7-6.9-1.7c-4.1,0-7.6,1.4-10.4,4.2
		c-2.8,2.8-4.3,6.2-4.3,10.3c0,4.1,1.4,7.5,4.3,10.3c2.8,2.8,6.3,4.2,10.4,4.2c5.1,0,9-2.1,11.7-6.4l-4.2-3.2
		c-2,2.8-4.5,4.2-7.5,4.2c-2.5,0-4.6-0.9-6.3-2.6c-1.6-1.7-2.5-3.9-2.5-6.5c0-2.5,0.8-4.7,2.5-6.4
		C325.6,148.1,327.7,147.3,330.2,147.3z M269.4,146v-3.6h-5.5v27.7h5.9v-14.8c0-2.4,0.8-4.3,2.3-5.7c1.6-1.3,3.5-2,5.8-2h1.8v-5.3
		c-0.7-0.2-1.4-0.3-2.3-0.3C274.1,142.1,271.4,143.4,269.4,146z M250.6,146.4c-2.2-3-5.5-4.6-9.8-4.6c-3.9,0-7.1,1.3-9.7,3.9
		c-2.6,2.6-3.8,5.9-3.8,10c0,4.1,1.3,7.4,3.8,10c2.6,2.6,5.8,3.9,9.7,3.9c4,0,7.1-1.3,9.4-3.9v1.9c0,2.6-0.8,4.6-2.3,5.9
		c-1.5,1.3-3.5,2-6.1,2c-3.2,0-6.5-1.3-9.7-4l-3.3,4.1c3.7,3.5,8.2,5.3,13.3,5.3c4.2,0,7.6-1.2,10.1-3.6c2.5-2.4,3.8-5.7,3.8-10.1
		v-24.9h-5.5V146.4z M247.8,162.1c-1.7,1.5-3.6,2.3-5.9,2.3c-2.4,0-4.4-0.8-6-2.4c-1.6-1.6-2.4-3.7-2.4-6.3c0-2.6,0.8-4.6,2.4-6.2
		c1.6-1.6,3.6-2.4,6-2.4c2.3,0,4.3,0.7,5.9,2.1c1.6,1.4,2.4,3.6,2.4,6.4C250.3,158.5,249.4,160.6,247.8,162.1z M210.2,141.8
		c-5,0-8.9,2-11.7,5.9l3.4,3.5c2.3-2.8,4.9-4.1,7.7-4.1c1.9,0,3.3,0.5,4.4,1.5c1,1,1.6,2.5,1.6,4.4v1.8h-7.9c-3.1,0-5.6,0.7-7.5,2.1
		c-1.8,1.4-2.8,3.4-2.8,5.8c0,2.4,0.9,4.4,2.6,5.8c1.8,1.5,4.1,2.2,7,2.2c3.8,0,6.8-1.2,8.9-3.7v3.1h5.5v-16.8c0-3.7-1-6.6-3.1-8.6
		C216.3,142.8,213.6,141.8,210.2,141.8z M215.5,159.7c0,1.9-0.7,3.4-2.1,4.7c-1.4,1.2-3.1,1.9-5.1,1.9c-1.4,0-2.6-0.3-3.5-1
		c-0.9-0.6-1.4-1.5-1.4-2.7c0-2.3,1.6-3.4,4.9-3.4h7.1V159.7z M262.8,44c-7.5-7.3-16.6-10.9-27.2-10.9c-10.7,0-19.8,3.6-27.1,10.9
		c-7.4,7.3-11,16.2-11,26.8s3.7,19.5,11,26.8c7.4,7.3,16.4,11,27.1,11.1c10.6,0,19.7-3.7,27.2-11c7.5-7.3,11.3-16.3,11.3-26.9
		S270.3,51.3,262.8,44z M251.7,87.7c-4.3,4.5-9.7,6.7-16.1,6.7c-6.5,0-11.8-2.2-16.1-6.7c-4.2-4.5-6.3-10-6.3-16.7
		c0-6.8,2.1-12.4,6.4-16.9c4.3-4.5,9.7-6.8,16.1-6.8c6.4,0.1,11.7,2.4,16,6.8c4.3,4.5,6.4,10.1,6.4,16.9
		C258.1,77.7,256,83.3,251.7,87.7z M318.6,108.7c9,0,16.5-2.9,22.5-8.8c5.9-5.8,8.9-13.6,8.9-23.2v-42h-15.5v43.2c0,5-1.5,9-4.6,12
		c-3.1,3-6.8,4.5-11.4,4.5c-4.7,0-8.6-1.5-11.7-4.5c-3.1-3-4.6-7-4.6-12V34.8h-15.3v42c0,9.6,3,17.4,9,23.2
		C301.9,105.8,309.4,108.7,318.6,108.7z M508.5,6.3c-4.6,4.2-6.9,10.5-6.9,18.9v81.9h15.5v-59h20V34.8h-20v-8.2
		c0-4.6,1.2-7.9,3.5-9.7c2.4-1.9,5.9-2.8,10.6-2.8c1.8,0,5.9,0,5.9,0V0c0,0-5.9,0-9.7,0C519.4,0,513.1,2.1,508.5,6.3z M478.9,141.8
		c-5,0-8.9,2-11.7,5.9l3.4,3.5c2.3-2.8,4.9-4.1,7.7-4.1c1.9,0,3.3,0.5,4.4,1.5c1,1,1.5,2.5,1.5,4.4v1.8h-7.9c-3.1,0-5.6,0.7-7.5,2.1
		c-1.8,1.4-2.8,3.4-2.8,5.8c0,2.4,0.9,4.4,2.7,5.8c1.8,1.5,4.1,2.2,7,2.2c3.8,0,6.8-1.2,8.9-3.7v3.1h5.5v-16.8c0-3.7-1-6.6-3.1-8.6
		C485.1,142.8,482.3,141.8,478.9,141.8z M484.3,159.7c0,1.9-0.7,3.4-2.1,4.7c-1.4,1.2-3.1,1.9-5.1,1.9c-1.4,0-2.6-0.3-3.5-1
		c-0.9-0.6-1.4-1.5-1.4-2.7c0-2.3,1.6-3.4,4.9-3.4h7.1V159.7z M548.2,107.1h15.5V34.8h-15.5V107.1z M556,0c-3,0-5.5,1-7.5,3
		c-2.1,2-3.1,4.4-3.1,7.3c0,2.8,1,5.3,3.1,7.2c2.1,2,4.6,2.9,7.5,2.9c2.9,0,5.3-1,7.4-2.9c2.1-2,3.1-4.4,3.1-7.2
		c0-2.9-1-5.3-3.1-7.3C561.3,1,558.9,0,556,0z M373.8,141.8c-4,0-7.4,1.4-10.2,4.2c-2.8,2.8-4.1,6.2-4.1,10.3
		c0,4.1,1.4,7.5,4.2,10.3c2.8,2.8,6.4,4.2,10.7,4.2c4.2,0,7.9-1.5,11.1-4.5l-2.8-4.1c-2.5,2.2-5.2,3.3-8.1,3.3
		c-2.4,0-4.4-0.6-6.1-1.9c-1.6-1.3-2.6-3.1-3-5.4h20.7c0.3-1.3,0.5-2.6,0.5-3.7c0-3.7-1.2-6.7-3.7-9.1
		C380.6,143,377.5,141.8,373.8,141.8z M365.6,153.6c0.4-2.1,1.4-3.7,2.9-4.9c1.4-1.2,3.2-1.8,5.1-1.8c2,0,3.7,0.6,5,1.8
		c1.4,1.2,2,2.9,2.1,4.9H365.6z M457.5,128.1c-1.1,0-2.1,0.4-2.9,1.2c-0.8,0.8-1.2,1.7-1.2,2.8c0,1.1,0.4,2,1.2,2.8
		c0.8,0.7,1.8,1.1,2.9,1.1c1.1,0,2-0.4,2.8-1.1c0.8-0.8,1.2-1.7,1.2-2.8c0-1.1-0.4-2-1.2-2.8C459.6,128.5,458.6,128.1,457.5,128.1z
		 M615.7,33.1c-9,0-16.2,2.9-21.7,8.8v-7.2h-14.4v72.4H595V63.9c0-4.9,1.5-8.9,4.6-12.1c3.1-3.1,7.1-4.7,11.9-4.7
		c4.7,0,8.5,1.5,11.4,4.6c2.9,3.1,4.3,7.1,4.3,12.2v43.2h15.5V61.9c0-8.6-2.4-15.6-7.2-20.9C630.8,35.8,624.1,33.1,615.7,33.1z
		 M720.7,44c-7.5-7.3-16.6-10.9-27.2-10.9c-10.7,0-19.7,3.6-27.1,10.9c-7.4,7.3-11.1,16.2-11.1,26.8s3.7,19.5,11.1,26.8
		c7.4,7.3,16.4,11,27.1,11.1c10.6,0,19.7-3.7,27.2-11c7.5-7.3,11.3-16.3,11.3-26.9S728.2,51.3,720.7,44z M709.5,87.7
		c-4.3,4.5-9.7,6.7-16.1,6.7c-6.5,0-11.8-2.2-16.1-6.7c-4.2-4.5-6.3-10-6.3-16.7c0-6.8,2.1-12.4,6.4-16.9c4.3-4.5,9.7-6.8,16.1-6.8
		c6.4,0.1,11.7,2.4,16,6.8c4.3,4.5,6.4,10.1,6.4,16.9C716,77.7,713.9,83.3,709.5,87.7z M408.6,48.5V34.8c-1.8-0.5-3.7-0.7-5.9-0.7
		c-8.9,0-16,3.4-21.1,10.2v-9.4h-14.4v72.4h15.5V68.5c0-6.4,2-11.3,6-14.8c4-3.5,9.1-5.2,15.2-5.2H408.6z M406.4,141.8
		c-3.5,0-6.2,1.1-8.3,3.4v-2.8h-5.5v27.7h5.9v-16.6c0-1.9,0.6-3.4,1.8-4.6c1.2-1.2,2.7-1.8,4.5-1.8c1.8,0,3.3,0.6,4.4,1.8
		c1.1,1.2,1.7,2.7,1.7,4.7v16.6h5.9v-17.4c0-3.3-0.9-6-2.8-8C412.2,142.8,409.7,141.8,406.4,141.8z M454.6,170.2h5.9v-27.7h-5.9
		V170.2z M373.9,132.4l7.9,4.8l2.4-4.2l-10.3-6.3l-10.3,6.3l2.5,4.2L373.9,132.4z M437.2,147.3c3,0,5.5,1.4,7.4,4.2l4.2-3.3
		c-1.2-2-2.8-3.6-4.8-4.7c-2-1.1-4.3-1.7-6.9-1.7c-4.1,0-7.6,1.4-10.4,4.2c-2.8,2.8-4.3,6.2-4.3,10.3c0,4.1,1.4,7.5,4.3,10.3
		c2.8,2.8,6.3,4.2,10.4,4.2c5.1,0,9-2.1,11.7-6.4l-4.2-3.2c-2,2.8-4.5,4.2-7.4,4.2c-2.5,0-4.6-0.9-6.3-2.6c-1.6-1.7-2.5-3.9-2.5-6.5
		c0-2.5,0.8-4.7,2.5-6.4C432.6,148.1,434.7,147.3,437.2,147.3z M488.6,70.9c0-10.6-3.8-19.6-11.3-26.8c-7.5-7.3-16.6-10.9-27.2-10.9
		c-10.7,0-19.7,3.6-27.1,10.9c-7.4,7.3-11.1,16.2-11.1,26.8s3.7,19.5,11.1,26.8c7.4,7.3,16.4,11,27.1,11.1c10.6,0,19.7-3.7,27.2-11
		C484.9,90.4,488.6,81.5,488.6,70.9z M466.2,87.7c-4.3,4.5-9.7,6.7-16.1,6.7c-6.5,0-11.8-2.2-16.1-6.7c-4.2-4.5-6.3-10-6.3-16.7
		c0-6.8,2.1-12.4,6.4-16.9c4.3-4.5,9.6-6.8,16.1-6.8c6.4,0.1,11.7,2.4,16,6.8c4.3,4.5,6.4,10.1,6.4,16.9
		C472.7,77.7,470.5,83.3,466.2,87.7z"/>
	<linearGradient id="SVGID_1_" gradientUnits="userSpaceOnUse" x1="167.7643" y1="49.1779" x2="22.3869" y2="169.2723">
		<stop  offset="0" style="stop-color:#00682C"/>
		<stop  offset="0.7" style="stop-color:#62BB46"/>
		<stop  offset="1" style="stop-color:#A6CE39"/>
	</linearGradient>
	<path fill="url(#SVGID_1_)" d="M50.9,65L0,88.3v22.7L71.9,77L50.9,65z M0,172.5l53.8,9.5v-0.5L0,148.4V172.5z M0,35.6v20L19.7,47
		L0,35.6z M24.6,49.8L0,60.6v22.7l46.3-21.1L24.6,49.8z M164.7,104.3L44.7,33H5.1v0.3l137.7,79.7L164.7,104.3z M0,116l122.9,78.2
		l40.3,7.1v-0.5L18.9,107L0,116z M0,142.9l67.1,41.5l43.5,7.7v-0.5L0,121.6V142.9z M53.8,33v0.3l115.6,69.1l0,0V81.2L90.9,33H53.8z
		 M99.5,33v0.3l69.9,43.2V55.2l-35-22.2H99.5z M142.4,33v0.3l27,17.2V33L142.4,33z M139.9,180.6l29.5-13.2v-28.2l-56.2,24
		L139.9,180.6z M169.4,199.9v-28.2l-25.5,11.5L169.4,199.9z M109.1,160.5l60.3-25.5v-28.2l-88.2,35.5L109.1,160.5z"/>
</g>
<g>
</g>
<g>
</g>
<g>
</g>
<g>
</g>
<g>
</g>
<g>
</g>
</svg>
